<mxfile host="app.diagrams.net" modified="2021-08-23T08:54:33.640Z" agent="5.0 (Macintosh; Intel Mac OS X 10_15_7) AppleWebKit/537.36 (KHTML, like Gecko) Chrome/86.0.4240.193 Safari/537.36" etag="0FQUVctcE90sRhEa_tFD" version="14.9.8" type="github">
  <diagram id="4qBPS3LPbpyXBZIg4Njo" name="Page-1">
    <mxGraphModel dx="946" dy="536" grid="1" gridSize="10" guides="1" tooltips="1" connect="1" arrows="1" fold="1" page="1" pageScale="1" pageWidth="827" pageHeight="1169" math="0" shadow="0">
      <root>
        <mxCell id="0" />
        <mxCell id="1" parent="0" />
        <mxCell id="GZczIIODg5fzbpcY63mU-1" value="1" style="rounded=0;whiteSpace=wrap;html=1;fillColor=#dae8fc;strokeColor=#6c8ebf;" vertex="1" parent="1">
          <mxGeometry x="260" y="120" width="50" height="50" as="geometry" />
        </mxCell>
        <mxCell id="GZczIIODg5fzbpcY63mU-2" value="" style="rounded=0;whiteSpace=wrap;html=1;" vertex="1" parent="1">
          <mxGeometry x="310" y="120" width="50" height="50" as="geometry" />
        </mxCell>
        <mxCell id="GZczIIODg5fzbpcY63mU-3" value="" style="rounded=0;whiteSpace=wrap;html=1;fillColor=#f8cecc;strokeColor=#b85450;" vertex="1" parent="1">
          <mxGeometry x="360" y="120" width="50" height="50" as="geometry" />
        </mxCell>
        <mxCell id="GZczIIODg5fzbpcY63mU-4" value="2" style="rounded=0;whiteSpace=wrap;html=1;fillColor=#dae8fc;strokeColor=#6c8ebf;" vertex="1" parent="1">
          <mxGeometry x="260" y="170" width="50" height="50" as="geometry" />
        </mxCell>
        <mxCell id="GZczIIODg5fzbpcY63mU-5" value="" style="rounded=0;whiteSpace=wrap;html=1;" vertex="1" parent="1">
          <mxGeometry x="310" y="170" width="50" height="50" as="geometry" />
        </mxCell>
        <mxCell id="GZczIIODg5fzbpcY63mU-6" value="" style="rounded=0;whiteSpace=wrap;html=1;" vertex="1" parent="1">
          <mxGeometry x="360" y="170" width="50" height="50" as="geometry" />
        </mxCell>
        <mxCell id="GZczIIODg5fzbpcY63mU-7" value="3" style="rounded=0;whiteSpace=wrap;html=1;fillColor=#dae8fc;strokeColor=#6c8ebf;" vertex="1" parent="1">
          <mxGeometry x="260" y="220" width="50" height="50" as="geometry" />
        </mxCell>
        <mxCell id="GZczIIODg5fzbpcY63mU-9" value="5" style="rounded=0;whiteSpace=wrap;html=1;fillColor=#dae8fc;strokeColor=#6c8ebf;" vertex="1" parent="1">
          <mxGeometry x="360" y="220" width="50" height="50" as="geometry" />
        </mxCell>
        <mxCell id="GZczIIODg5fzbpcY63mU-10" value="9" style="rounded=0;whiteSpace=wrap;html=1;fillColor=#dae8fc;strokeColor=#6c8ebf;" vertex="1" parent="1">
          <mxGeometry x="410" y="120" width="50" height="50" as="geometry" />
        </mxCell>
        <mxCell id="GZczIIODg5fzbpcY63mU-11" value="7" style="rounded=0;whiteSpace=wrap;html=1;fillColor=#dae8fc;strokeColor=#6c8ebf;" vertex="1" parent="1">
          <mxGeometry x="410" y="170" width="50" height="50" as="geometry" />
        </mxCell>
        <mxCell id="GZczIIODg5fzbpcY63mU-12" value="6" style="rounded=0;whiteSpace=wrap;html=1;fillColor=#dae8fc;strokeColor=#6c8ebf;" vertex="1" parent="1">
          <mxGeometry x="410" y="220" width="50" height="50" as="geometry" />
        </mxCell>
        <mxCell id="GZczIIODg5fzbpcY63mU-13" value="" style="rounded=0;whiteSpace=wrap;html=1;fillColor=#f8cecc;strokeColor=#b85450;" vertex="1" parent="1">
          <mxGeometry x="260" y="270" width="50" height="50" as="geometry" />
        </mxCell>
        <mxCell id="GZczIIODg5fzbpcY63mU-14" value="" style="rounded=0;whiteSpace=wrap;html=1;" vertex="1" parent="1">
          <mxGeometry x="310" y="270" width="50" height="50" as="geometry" />
        </mxCell>
        <mxCell id="GZczIIODg5fzbpcY63mU-15" value="" style="rounded=0;whiteSpace=wrap;html=1;" vertex="1" parent="1">
          <mxGeometry x="360" y="270" width="50" height="50" as="geometry" />
        </mxCell>
        <mxCell id="GZczIIODg5fzbpcY63mU-16" value="10" style="rounded=0;whiteSpace=wrap;html=1;fillColor=#dae8fc;strokeColor=#6c8ebf;" vertex="1" parent="1">
          <mxGeometry x="410" y="270" width="50" height="50" as="geometry" />
        </mxCell>
        <mxCell id="GZczIIODg5fzbpcY63mU-17" value="4" style="rounded=0;whiteSpace=wrap;html=1;fillColor=#dae8fc;strokeColor=#6c8ebf;" vertex="1" parent="1">
          <mxGeometry x="310" y="220" width="50" height="50" as="geometry" />
        </mxCell>
        <mxCell id="GZczIIODg5fzbpcY63mU-18" value="1" style="rounded=0;whiteSpace=wrap;html=1;fillColor=#dae8fc;strokeColor=#6c8ebf;" vertex="1" parent="1">
          <mxGeometry x="260" y="390" width="50" height="50" as="geometry" />
        </mxCell>
        <mxCell id="GZczIIODg5fzbpcY63mU-19" value="3" style="rounded=0;whiteSpace=wrap;html=1;fillColor=#fff2cc;strokeColor=#d6b656;" vertex="1" parent="1">
          <mxGeometry x="310" y="390" width="50" height="50" as="geometry" />
        </mxCell>
        <mxCell id="GZczIIODg5fzbpcY63mU-20" value="" style="rounded=0;whiteSpace=wrap;html=1;fillColor=#f8cecc;strokeColor=#b85450;" vertex="1" parent="1">
          <mxGeometry x="360" y="390" width="50" height="50" as="geometry" />
        </mxCell>
        <mxCell id="GZczIIODg5fzbpcY63mU-21" value="2" style="rounded=0;whiteSpace=wrap;html=1;fillColor=#fff2cc;strokeColor=#d6b656;" vertex="1" parent="1">
          <mxGeometry x="260" y="440" width="50" height="50" as="geometry" />
        </mxCell>
        <mxCell id="GZczIIODg5fzbpcY63mU-22" value="5" style="rounded=0;whiteSpace=wrap;html=1;fillColor=#d5e8d4;strokeColor=#82b366;" vertex="1" parent="1">
          <mxGeometry x="310" y="440" width="50" height="50" as="geometry" />
        </mxCell>
        <mxCell id="GZczIIODg5fzbpcY63mU-23" value="7" style="rounded=0;whiteSpace=wrap;html=1;fillColor=#dae8fc;strokeColor=#6c8ebf;" vertex="1" parent="1">
          <mxGeometry x="360" y="440" width="50" height="50" as="geometry" />
        </mxCell>
        <mxCell id="GZczIIODg5fzbpcY63mU-24" value="4" style="rounded=0;whiteSpace=wrap;html=1;fillColor=#d5e8d4;strokeColor=#82b366;" vertex="1" parent="1">
          <mxGeometry x="260" y="490" width="50" height="50" as="geometry" />
        </mxCell>
        <mxCell id="GZczIIODg5fzbpcY63mU-25" value="9" style="rounded=0;whiteSpace=wrap;html=1;fillColor=#fff2cc;strokeColor=#d6b656;" vertex="1" parent="1">
          <mxGeometry x="360" y="490" width="50" height="50" as="geometry" />
        </mxCell>
        <mxCell id="GZczIIODg5fzbpcY63mU-26" value="13" style="rounded=0;whiteSpace=wrap;html=1;fillColor=#d5e8d4;strokeColor=#82b366;" vertex="1" parent="1">
          <mxGeometry x="410" y="390" width="50" height="50" as="geometry" />
        </mxCell>
        <mxCell id="GZczIIODg5fzbpcY63mU-27" value="10" style="rounded=0;whiteSpace=wrap;html=1;fillColor=#fff2cc;strokeColor=#d6b656;" vertex="1" parent="1">
          <mxGeometry x="410" y="440" width="50" height="50" as="geometry" />
        </mxCell>
        <mxCell id="GZczIIODg5fzbpcY63mU-28" value="12" style="rounded=0;whiteSpace=wrap;html=1;fillColor=#d5e8d4;strokeColor=#82b366;" vertex="1" parent="1">
          <mxGeometry x="410" y="490" width="50" height="50" as="geometry" />
        </mxCell>
        <mxCell id="GZczIIODg5fzbpcY63mU-29" value="" style="rounded=0;whiteSpace=wrap;html=1;fillColor=#f8cecc;strokeColor=#b85450;" vertex="1" parent="1">
          <mxGeometry x="260" y="540" width="50" height="50" as="geometry" />
        </mxCell>
        <mxCell id="GZczIIODg5fzbpcY63mU-30" value="8" style="rounded=0;whiteSpace=wrap;html=1;fillColor=#fff2cc;strokeColor=#d6b656;" vertex="1" parent="1">
          <mxGeometry x="310" y="540" width="50" height="50" as="geometry" />
        </mxCell>
        <mxCell id="GZczIIODg5fzbpcY63mU-31" value="11" style="rounded=0;whiteSpace=wrap;html=1;fillColor=#d5e8d4;strokeColor=#82b366;" vertex="1" parent="1">
          <mxGeometry x="360" y="540" width="50" height="50" as="geometry" />
        </mxCell>
        <mxCell id="GZczIIODg5fzbpcY63mU-32" value="15" style="rounded=0;whiteSpace=wrap;html=1;fillColor=#dae8fc;strokeColor=#6c8ebf;" vertex="1" parent="1">
          <mxGeometry x="410" y="540" width="50" height="50" as="geometry" />
        </mxCell>
        <mxCell id="GZczIIODg5fzbpcY63mU-33" value="6" style="rounded=0;whiteSpace=wrap;html=1;fillColor=#dae8fc;strokeColor=#6c8ebf;" vertex="1" parent="1">
          <mxGeometry x="310" y="490" width="50" height="50" as="geometry" />
        </mxCell>
        <mxCell id="GZczIIODg5fzbpcY63mU-34" value="1" style="rounded=0;whiteSpace=wrap;html=1;fillColor=#dae8fc;strokeColor=#6c8ebf;" vertex="1" parent="1">
          <mxGeometry x="530" y="120" width="50" height="50" as="geometry" />
        </mxCell>
        <mxCell id="GZczIIODg5fzbpcY63mU-35" value="10" style="rounded=0;whiteSpace=wrap;html=1;fillColor=#dae8fc;strokeColor=#6c8ebf;" vertex="1" parent="1">
          <mxGeometry x="580" y="120" width="50" height="50" as="geometry" />
        </mxCell>
        <mxCell id="GZczIIODg5fzbpcY63mU-36" value="" style="rounded=0;whiteSpace=wrap;html=1;fillColor=#f8cecc;strokeColor=#b85450;" vertex="1" parent="1">
          <mxGeometry x="630" y="120" width="50" height="50" as="geometry" />
        </mxCell>
        <mxCell id="GZczIIODg5fzbpcY63mU-37" value="2" style="rounded=0;whiteSpace=wrap;html=1;fillColor=#dae8fc;strokeColor=#6c8ebf;" vertex="1" parent="1">
          <mxGeometry x="530" y="170" width="50" height="50" as="geometry" />
        </mxCell>
        <mxCell id="GZczIIODg5fzbpcY63mU-38" value="9" style="rounded=0;whiteSpace=wrap;html=1;fillColor=#dae8fc;strokeColor=#6c8ebf;" vertex="1" parent="1">
          <mxGeometry x="580" y="170" width="50" height="50" as="geometry" />
        </mxCell>
        <mxCell id="GZczIIODg5fzbpcY63mU-39" value="8" style="rounded=0;whiteSpace=wrap;html=1;fillColor=#dae8fc;strokeColor=#6c8ebf;" vertex="1" parent="1">
          <mxGeometry x="630" y="170" width="50" height="50" as="geometry" />
        </mxCell>
        <mxCell id="GZczIIODg5fzbpcY63mU-40" value="3" style="rounded=0;whiteSpace=wrap;html=1;fillColor=#dae8fc;strokeColor=#6c8ebf;" vertex="1" parent="1">
          <mxGeometry x="530" y="220" width="50" height="50" as="geometry" />
        </mxCell>
        <mxCell id="GZczIIODg5fzbpcY63mU-41" value="5" style="rounded=0;whiteSpace=wrap;html=1;fillColor=#dae8fc;strokeColor=#6c8ebf;" vertex="1" parent="1">
          <mxGeometry x="630" y="220" width="50" height="50" as="geometry" />
        </mxCell>
        <mxCell id="GZczIIODg5fzbpcY63mU-42" value="" style="rounded=0;whiteSpace=wrap;html=1;" vertex="1" parent="1">
          <mxGeometry x="680" y="120" width="50" height="50" as="geometry" />
        </mxCell>
        <mxCell id="GZczIIODg5fzbpcY63mU-43" value="7" style="rounded=0;whiteSpace=wrap;html=1;fillColor=#dae8fc;strokeColor=#6c8ebf;" vertex="1" parent="1">
          <mxGeometry x="680" y="170" width="50" height="50" as="geometry" />
        </mxCell>
        <mxCell id="GZczIIODg5fzbpcY63mU-44" value="6" style="rounded=0;whiteSpace=wrap;html=1;fillColor=#dae8fc;strokeColor=#6c8ebf;" vertex="1" parent="1">
          <mxGeometry x="680" y="220" width="50" height="50" as="geometry" />
        </mxCell>
        <mxCell id="GZczIIODg5fzbpcY63mU-45" value="" style="rounded=0;whiteSpace=wrap;html=1;fillColor=#f8cecc;strokeColor=#b85450;" vertex="1" parent="1">
          <mxGeometry x="530" y="270" width="50" height="50" as="geometry" />
        </mxCell>
        <mxCell id="GZczIIODg5fzbpcY63mU-46" value="" style="rounded=0;whiteSpace=wrap;html=1;" vertex="1" parent="1">
          <mxGeometry x="580" y="270" width="50" height="50" as="geometry" />
        </mxCell>
        <mxCell id="GZczIIODg5fzbpcY63mU-47" value="" style="rounded=0;whiteSpace=wrap;html=1;" vertex="1" parent="1">
          <mxGeometry x="630" y="270" width="50" height="50" as="geometry" />
        </mxCell>
        <mxCell id="GZczIIODg5fzbpcY63mU-48" value="" style="rounded=0;whiteSpace=wrap;html=1;" vertex="1" parent="1">
          <mxGeometry x="680" y="270" width="50" height="50" as="geometry" />
        </mxCell>
        <mxCell id="GZczIIODg5fzbpcY63mU-49" value="4" style="rounded=0;whiteSpace=wrap;html=1;fillColor=#dae8fc;strokeColor=#6c8ebf;" vertex="1" parent="1">
          <mxGeometry x="580" y="220" width="50" height="50" as="geometry" />
        </mxCell>
      </root>
    </mxGraphModel>
  </diagram>
</mxfile>
